SRRun01_grf
version=1
nRows=18
nColumns=19
inDegrees=no
endheader
time	ground_force_r_vx	ground_force_r_vy	ground_force_r_vz	ground_force_r_px	ground_force_r_py	ground_force_r_pz	ground_force_r_mx	ground_force_r_my	ground_force_r_mz	ground_force_l_vx	ground_force_l_vy	ground_force_l_vz	ground_force_l_px	ground_force_l_py	ground_force_l_pz	ground_force_l_mx	ground_force_l_my	ground_force_l_mz
    144.99800000	    -38.01289734	   2102.19227457	    145.71420914	      0.86837996	      0.00000000	     -0.92986492	      0.00009085	     -3.26422297	      0.00010509	      0.00000000	      0.00000000	      0.00000000	      0.00000000	      0.00000000	      0.00000000	      0.00000000	      0.00000000	      0.00000000
    144.99900000	    -26.91932999	   2104.67861057	    142.98802710	      0.86878714	      0.00000000	     -0.92765818	      0.00008613	     -4.43065342	      0.00010538	      0.00000000	      0.00000000	      0.00000000	      0.00000000	      0.00000000	      0.00000000	      0.00000000	      0.00000000	      0.00000000
    145.00000000	    -16.37680742	   2107.34225874	    140.08960740	      0.86919560	      0.00000000	     -0.92543272	      0.00008185	     -5.18172701	      0.00010508	      0.00000000	      0.00000000	      0.00000000	      0.00000000	      0.00000000	      0.00000000	      0.00000000	      0.00000000	      0.00000000
    145.00100000	     -7.07455803	   2110.22225382	    136.87061819	      0.86958808	      0.00000000	     -0.92315404	      0.00007814	     -5.38236761	      0.00010425	      0.00000000	      0.00000000	      0.00000000	      0.00000000	      0.00000000	      0.00000000	      0.00000000	      0.00000000	      0.00000000
    145.00200000	      0.36662225	   2113.29047855	    133.14472446	      0.86994598	      0.00000000	     -0.92078043	      0.00007511	     -4.96391542	      0.00010297	      0.00000000	      0.00000000	      0.00000000	      0.00000000	      0.00000000	      0.00000000	      0.00000000	      0.00000000	      0.00000000
    145.00300000	      5.44048773	   2116.45974997	    128.71722269	      0.87025027	      0.00000000	     -0.91826793	      0.00007281	     -3.93275628	      0.00010131	      0.00000000	      0.00000000	      0.00000000	      0.00000000	      0.00000000	      0.00000000	      0.00000000	      0.00000000	      0.00000000
    145.00400000	      7.79353327	   2119.59881117	    123.42096239	      0.87048261	      0.00000000	     -0.91557676	      0.00007125	     -2.37106404	      0.00009941	      0.00000000	      0.00000000	      0.00000000	      0.00000000	      0.00000000	      0.00000000	      0.00000000	      0.00000000	      0.00000000
    145.00500000	      7.25202777	   2122.55171648	    117.15248352	      0.87062675	      0.00000000	     -0.91267845	      0.00007043	     -0.42980728	      0.00009735	      0.00000000	      0.00000000	      0.00000000	      0.00000000	      0.00000000	      0.00000000	      0.00000000	      0.00000000	      0.00000000
    145.00600000	      3.83575509	   2125.15863970	    109.90191756	      0.87067012	      0.00000000	     -0.90956260	      0.00007028	      1.68523996	      0.00009523	      0.00000000	      0.00000000	      0.00000000	      0.00000000	      0.00000000	      0.00000000	      0.00000000	      0.00000000	      0.00000000
    145.00700000	     -2.24261656	   2127.27515261	    101.77099704	      0.87060549	      0.00000000	     -0.90624219	      0.00007071	      3.73318789	      0.00009311	      0.00000000	      0.00000000	      0.00000000	      0.00000000	      0.00000000	      0.00000000	      0.00000000	      0.00000000	      0.00000000
    145.00800000	    -10.59245636	   2128.78752990	     92.97535002	      0.87043230	      0.00000000	     -0.90275628	      0.00007161	      5.46168694	      0.00009102	      0.00000000	      0.00000000	      0.00000000	      0.00000000	      0.00000000	      0.00000000	      0.00000000	      0.00000000	      0.00000000
    145.00900000	    -20.67297950	   2129.62261061	     83.82970796	      0.87015765	      0.00000000	     -0.89916926	      0.00007283	      6.63255837	      0.00008896	      0.00000000	      0.00000000	      0.00000000	      0.00000000	      0.00000000	      0.00000000	      0.00000000	      0.00000000	      0.00000000
    145.01000000	    -31.83131206	   2129.75185278	     74.71726233	      0.86979639	      0.00000000	     -0.89556614	      0.00007421	      7.04728577	      0.00008690	      0.00000000	      0.00000000	      0.00000000	      0.00000000	      0.00000000	      0.00000000	      0.00000000	      0.00000000	      0.00000000
    145.01100000	    -43.34741811	   2129.18995642	     66.04680959	      0.86937062	      0.00000000	     -0.89204400	      0.00007561	      6.57018759	      0.00008479	      0.00000000	      0.00000000	      0.00000000	      0.00000000	      0.00000000	      0.00000000	      0.00000000	      0.00000000	      0.00000000
    145.01200000	    -54.48230109	   2127.98870043	     58.20326077	      0.86890833	      0.00000000	     -0.88870044	      0.00007687	      5.14707254	      0.00008259	      0.00000000	      0.00000000	      0.00000000	      0.00000000	      0.00000000	      0.00000000	      0.00000000	      0.00000000	      0.00000000
    145.01300000	    -64.52607601	   2126.22684951	     51.49829341	      0.86844143	      0.00000000	     -0.88562071	      0.00007786	      2.81728467	      0.00008026	      0.00000000	      0.00000000	      0.00000000	      0.00000000	      0.00000000	      0.00000000	      0.00000000	      0.00000000	      0.00000000
    145.01400000	    -72.84283904	   2123.99745728	     46.12812331	      0.86800321	      0.00000000	     -0.88286531	      0.00007848	     -0.28264449	      0.00007780	      0.00000000	      0.00000000	      0.00000000	      0.00000000	      0.00000000	      0.00000000	      0.00000000	      0.00000000	      0.00000000
    145.01500000	    -78.90962815	   2121.39441028	     42.14443387	      0.86762556	      0.00000000	     -0.88046020	      0.00007866	     -3.92494907	      0.00007526	      0.00000000	      0.00000000	      0.00000000	      0.00000000	      0.00000000	      0.00000000	      0.00000000	      0.00000000	      0.00000000
